<?xml version="1.0" standalone="no"?>
<!DOCTYPE svg PUBLIC "-//W3C//DTD SVG 20010904//EN"
 "http://www.w3.org/TR/2001/REC-SVG-20010904/DTD/svg10.dtd">
<svg version="1.0" xmlns="http://www.w3.org/2000/svg"
 width="512.000000pt" height="512.000000pt" viewBox="0 0 512.000000 512.000000"
 preserveAspectRatio="xMidYMid meet">

<g transform="translate(0.000000,512.000000) scale(0.100000,-0.100000)"
fill="#000000" stroke="none">
<path d="M1348 4390 c-746 -374 -1201 -607 -1208 -619 -5 -11 -10 -56 -10
-101 0 -73 3 -83 25 -105 l24 -25 2381 0 2381 0 24 25 c22 22 25 32 25 105 0
45 -5 90 -10 101 -11 19 -2397 1220 -2422 1218 -7 0 -552 -270 -1210 -599z"/>
<path d="M409 3037 c-39 -30 -39 -28 -39 -967 l0 -911 25 -24 24 -25 439 0
439 0 21 23 22 23 0 926 0 927 -26 20 c-26 21 -37 21 -458 21 -323 -1 -435 -4
-447 -13z"/>
<path d="M2103 3026 l-28 -24 -3 -904 c-1 -496 0 -913 3 -926 3 -12 14 -31 25
-42 19 -19 35 -20 460 -20 422 0 441 1 459 19 11 11 23 35 26 53 3 18 4 435 3
926 l-3 894 -28 24 -28 24 -429 0 -429 0 -28 -24z"/>
<path d="M3806 3029 l-26 -20 0 -928 0 -928 23 -21 c23 -22 25 -22 459 -22
414 0 437 1 459 19 l24 19 3 909 c1 499 0 918 -3 930 -3 12 -15 32 -27 43 -21
19 -34 20 -454 20 -421 0 -432 0 -458 -21z"/>
<path d="M173 610 c-39 -16 -43 -41 -43 -237 1 -197 3 -208 47 -231 31 -17
4735 -17 4766 0 44 23 46 34 47 234 0 174 -2 194 -19 215 l-19 24 -2379 2
c-1358 1 -2387 -2 -2400 -7z"/>
</g>
</svg>
