<?xml version="1.0" standalone="no"?>
<!DOCTYPE svg PUBLIC "-//W3C//DTD SVG 20010904//EN"
 "http://www.w3.org/TR/2001/REC-SVG-20010904/DTD/svg10.dtd">
<svg version="1.0" xmlns="http://www.w3.org/2000/svg"
 width="512.000000pt" height="512.000000pt" viewBox="0 0 512.000000 512.000000"
 preserveAspectRatio="xMidYMid meet">

<g transform="translate(0.000000,512.000000) scale(0.100000,-0.100000)"
fill="#000000" stroke="none">
<path d="M600 4970 l0 -150 305 0 305 0 0 -315 0 -315 -605 0 -605 0 0 -2095
0 -2095 2560 0 2560 0 0 2095 0 2095 -605 0 -605 0 0 315 0 315 305 0 305 0 0
150 0 150 -1960 0 -1960 0 0 -150z m3010 -465 l0 -315 -1050 0 -1050 0 0 315
0 315 1050 0 1050 0 0 -315z m1210 -2410 l0 -1795 -2260 0 -2260 0 0 1795 0
1795 2260 0 2260 0 0 -1795z"/>
<path d="M682 3033 c4 -628 2 -604 83 -770 36 -73 64 -112 130 -182 l85 -89 0
-696 0 -696 450 0 450 0 0 695 0 695 78 78 c82 83 129 153 169 252 51 126 53
155 53 733 l0 537 -150 0 -150 0 0 -315 0 -315 -150 0 -150 0 0 315 0 315
-150 0 -150 0 0 -315 0 -315 -150 0 -150 0 0 315 0 315 -151 0 -150 0 3 -557z
m1198 -416 c0 -218 -135 -400 -335 -452 -153 -39 -317 6 -431 119 -80 81 -115
163 -130 309 l-7 67 452 0 451 0 0 -43z m-300 -1242 l0 -475 -150 0 -150 0 0
475 0 475 150 0 150 0 0 -475z"/>
<path d="M3240 2096 l0 -1496 450 0 451 0 -4 1188 c-2 1109 -4 1191 -21 1247
-44 147 -122 274 -225 366 -79 72 -152 115 -258 152 -80 28 -102 31 -240 35
l-153 4 0 -1496z m421 1107 c60 -46 121 -127 151 -201 22 -55 23 -68 26 -454
l3 -398 -150 0 -151 0 0 560 0 560 37 -15 c20 -8 58 -32 84 -52z m179 -1828
l0 -475 -150 0 -150 0 0 475 0 475 150 0 150 0 0 -475z"/>
</g>
</svg>
